<svg width="18" height="18" viewBox="0 0 18 18" fill="none" xmlns="http://www.w3.org/2000/svg">
<path d="M7.125 10.7627C8.74614 10.7627 10.3009 11.4064 11.4473 12.5527C12.5936 13.6991 13.2373 15.2539 13.2373 16.875V16.9873H11.5127V16.875C11.5127 15.7114 11.0504 14.5953 10.2275 13.7725C9.40472 12.9496 8.28864 12.4873 7.125 12.4873C5.96136 12.4873 4.84528 12.9496 4.02246 13.7725C3.19965 14.5953 2.7373 15.7114 2.7373 16.875V16.9873H1.0127V16.875C1.0127 15.2539 1.65642 13.6991 2.80273 12.5527C3.94905 11.4064 5.50386 10.7627 7.125 10.7627ZM17.7373 13.0127V14.7373H14.5127V13.0127H17.7373ZM17.7373 9.2627V10.9873H12.2627V9.2627H17.7373ZM7.125 1.0127C9.67338 1.0127 11.7373 3.07662 11.7373 5.625C11.7373 8.17338 9.67338 10.2373 7.125 10.2373C4.57662 10.2373 2.5127 8.17338 2.5127 5.625C2.5127 3.07662 4.57662 1.0127 7.125 1.0127ZM7.125 2.7373C5.52963 2.7373 4.2373 4.02963 4.2373 5.625C4.2373 7.22037 5.52963 8.5127 7.125 8.5127C8.72037 8.5127 10.0127 7.22037 10.0127 5.625C10.0127 4.02963 8.72037 2.7373 7.125 2.7373ZM17.7373 5.5127V7.2373H13.7627V5.5127H17.7373Z" fill="#4CAF50" stroke="#4CAF50" stroke-width="0.225"/>
</svg>
