<svg width="28" height="28" viewBox="0 0 28 28" fill="none" xmlns="http://www.w3.org/2000/svg">
<path fill-rule="evenodd" clip-rule="evenodd" d="M10.291 11.75C10.291 9.88604 11.8021 8.375 13.666 8.375C15.53 8.375 17.041 9.88604 17.041 11.75C17.041 13.614 15.53 15.125 13.666 15.125C11.8021 15.125 10.291 13.614 10.291 11.75ZM13.666 10.625C13.0447 10.625 12.541 11.1287 12.541 11.75C12.541 12.3713 13.0447 12.875 13.666 12.875C14.2873 12.875 14.791 12.3713 14.791 11.75C14.791 11.1287 14.2873 10.625 13.666 10.625Z" fill="#4CAF50"/>
<path fill-rule="evenodd" clip-rule="evenodd" d="M19.291 17.2614C20.6829 15.841 21.541 13.8957 21.541 11.75C21.541 7.40076 18.0153 3.875 13.666 3.875C9.31677 3.875 5.79102 7.40076 5.79102 11.75C5.79102 13.8957 6.64918 15.841 8.04102 17.2614V23.2149C8.04102 24.4693 9.36117 25.2852 10.4832 24.7242L13.666 23.1328L16.8488 24.7242C17.9709 25.2852 19.291 24.4693 19.291 23.2149V17.2614ZM13.666 6.125C10.5594 6.125 8.04102 8.6434 8.04102 11.75C8.04102 13.59 8.92453 15.2237 10.2905 16.25C11.2306 16.9562 12.3997 17.375 13.666 17.375C14.9323 17.375 16.1009 16.9566 17.041 16.2504C18.407 15.2242 19.291 13.59 19.291 11.75C19.291 8.6434 16.7726 6.125 13.666 6.125ZM17.041 18.8672C16.0181 19.3531 14.8738 19.625 13.666 19.625C12.4582 19.625 11.3139 19.3531 10.291 18.8672V22.3047L12.9113 20.9945C13.3864 20.757 13.9456 20.757 14.4207 20.9945L17.041 22.3047V18.8672Z" fill="#4CAF50"/>
<path fill-rule="evenodd" clip-rule="evenodd" d="M10.291 11.75C10.291 9.88604 11.8021 8.375 13.666 8.375C15.53 8.375 17.041 9.88604 17.041 11.75C17.041 13.614 15.53 15.125 13.666 15.125C11.8021 15.125 10.291 13.614 10.291 11.75ZM13.666 10.625C13.0447 10.625 12.541 11.1287 12.541 11.75C12.541 12.3713 13.0447 12.875 13.666 12.875C14.2873 12.875 14.791 12.3713 14.791 11.75C14.791 11.1287 14.2873 10.625 13.666 10.625Z" stroke="#EDF7EE" stroke-width="0.5625" stroke-linejoin="round"/>
<path fill-rule="evenodd" clip-rule="evenodd" d="M19.291 17.2614C20.6829 15.841 21.541 13.8957 21.541 11.75C21.541 7.40076 18.0153 3.875 13.666 3.875C9.31677 3.875 5.79102 7.40076 5.79102 11.75C5.79102 13.8957 6.64918 15.841 8.04102 17.2614V23.2149C8.04102 24.4693 9.36117 25.2852 10.4832 24.7242L13.666 23.1328L16.8488 24.7242C17.9709 25.2852 19.291 24.4693 19.291 23.2149V17.2614ZM13.666 6.125C10.5594 6.125 8.04102 8.6434 8.04102 11.75C8.04102 13.59 8.92453 15.2237 10.2905 16.25C11.2306 16.9562 12.3997 17.375 13.666 17.375C14.9323 17.375 16.1009 16.9566 17.041 16.2504C18.407 15.2242 19.291 13.59 19.291 11.75C19.291 8.6434 16.7726 6.125 13.666 6.125ZM17.041 18.8672C16.0181 19.3531 14.8738 19.625 13.666 19.625C12.4582 19.625 11.3139 19.3531 10.291 18.8672V22.3047L12.9113 20.9945C13.3864 20.757 13.9456 20.757 14.4207 20.9945L17.041 22.3047V18.8672Z" stroke="#EDF7EE" stroke-width="0.5625" stroke-linejoin="round"/>
</svg>
