<svg width="24" height="24" viewBox="0 0 24 24" fill="none" xmlns="http://www.w3.org/2000/svg">
<path d="M3.79688 13.7969H2.58594C2.26207 13.7969 2 14.0589 2 14.3828V21.4141C2 21.7379 2.26207 22 2.58594 22H3.79688C4.76617 22 5.55469 21.2115 5.55469 20.2422V15.5547C5.55469 14.5854 4.76617 13.7969 3.79688 13.7969ZM15.5547 2C12.0039 2 9.10938 4.89449 9.10938 8.44531C9.10938 9.99219 9.66012 11.4101 10.5742 12.5234C11.3125 12.7343 12.0039 13.1093 12.5898 13.625C12.7 13.7077 12.7622 13.7067 12.8828 13.7188H14.9688C15.7773 13.7188 16.4922 14.1171 16.9024 14.75C19.8086 14.1289 22 11.5391 22 8.44531C22 4.89449 19.1055 2 15.5547 2ZM16.1523 11.2695H16.1406V11.9609C16.1406 12.289 15.8829 12.5469 15.5547 12.5469C15.2265 12.5469 14.9688 12.289 14.9688 11.9609V11.2695C14.582 11.1406 14.2188 10.8945 13.9024 10.5078C13.6914 10.2617 13.7266 9.8984 13.9727 9.6875C14.2188 9.47656 14.5938 9.51172 14.793 9.75781C15.1094 10.1328 15.4609 10.2734 15.7539 10.1679C15.9883 10.0859 16.1406 9.86324 16.1406 9.61719C16.1406 9.28902 15.8829 9.03125 15.5547 9.03125C14.582 9.03125 13.7969 8.24605 13.7969 7.27344C13.7969 6.57027 14.2188 5.92574 14.875 5.65625C14.8985 5.64453 14.9336 5.64453 14.9688 5.63277V4.92969C14.9688 4.60152 15.2265 4.34375 15.5547 4.34375C15.8829 4.34375 16.1406 4.60152 16.1406 4.92969V5.63277C16.4453 5.73828 16.7383 5.89062 17.0078 6.1484C17.2422 6.37105 17.2422 6.74605 17.0195 6.98047C16.7969 7.21488 16.4219 7.21484 16.1875 6.99219C15.9062 6.72262 15.5899 6.61719 15.332 6.73434C15.1094 6.82812 14.9688 7.03906 14.9688 7.27344C14.9688 7.60152 15.2265 7.85938 15.5547 7.85938C16.5273 7.85938 17.3125 8.64453 17.3125 9.61719C17.3125 10.3555 16.8437 11.0117 16.1523 11.2695Z" fill="#EF6820"/>
<path d="M21.8242 14.9337C21.7539 14.8166 21.6602 14.7228 21.5547 14.6407C21.1232 14.2633 20.3963 14.299 19.9727 14.758L17.3125 17.8283L17.2305 17.922C16.9024 18.2852 16.4336 18.4845 15.9414 18.4845H11.3555C11.0273 18.4845 10.7695 18.2266 10.7695 17.8986C10.7695 17.5704 11.0273 17.3126 11.3555 17.3126H14.9688C15.6133 17.3126 16.1406 16.7853 16.1406 16.1407V16.129C16.1289 15.4845 15.6133 14.9689 14.9688 14.9689H12.8086C12.4572 14.9689 12.0806 14.8398 11.7773 14.5822C10.3477 13.3282 8.26172 13.2462 6.72656 14.3127V21.5197C7.88672 21.8361 9.08203 22.0002 10.289 22.0002H15.5547C16.8437 22.0002 18.0625 21.3907 18.8359 20.3595L21.6485 16.6095C22.0588 16.0709 22.0898 15.3322 21.8242 14.9337Z" fill="#EF6820"/>
</svg>
