<svg width="19" height="18" viewBox="0 0 19 18" fill="none" xmlns="http://www.w3.org/2000/svg">
<path d="M6.33594 15V10.5H12.3359V15H14.5859V3H4.08594V15H6.33594ZM7.83594 15H10.8359V12H7.83594V15ZM16.0859 15H17.5859V16.5H1.08594V15H2.58594V2.25C2.58594 2.05109 2.66496 1.86032 2.80561 1.71967C2.94626 1.57902 3.13703 1.5 3.33594 1.5H15.3359C15.5349 1.5 15.7256 1.57902 15.8663 1.71967C16.0069 1.86032 16.0859 2.05109 16.0859 2.25V15ZM8.58594 6V4.5H10.0859V6H11.5859V7.5H10.0859V9H8.58594V7.5H7.08594V6H8.58594Z" fill="#4CAF50"/>
</svg>
