<svg width="24" height="25" viewBox="0 0 24 25" fill="none" xmlns="http://www.w3.org/2000/svg">
<path fill-rule="evenodd" clip-rule="evenodd" d="M12 2.01953C6.47715 2.01953 2 6.49668 2 12.0195C2 17.5424 6.47715 22.0195 12 22.0195C17.5228 22.0195 22 17.5424 22 12.0195C22 6.49668 17.5228 2.01953 12 2.01953ZM4 12.0195C4 7.60125 7.58172 4.01953 12 4.01953C16.4183 4.01953 20 7.60125 20 12.0195C20 16.4378 16.4183 20.0195 12 20.0195C7.58172 20.0195 4 16.4378 4 12.0195Z" fill="#4CAF50"/>
<path d="M11 7.51953C11 7.24339 11.2239 7.01953 11.5 7.01953H12.5C12.7761 7.01953 13 7.24339 13 7.51953V8.51953C13 8.79567 12.7761 9.01953 12.5 9.01953H11.5C11.2239 9.01953 11 8.79567 11 8.51953V7.51953Z" fill="#4CAF50"/>
<path d="M11 17.0195V11.0195H13V17.0195H11Z" fill="#4CAF50"/>
</svg>
