<svg width="40" height="28" viewBox="0 0 40 28" fill="none" xmlns="http://www.w3.org/2000/svg">
<g clip-path="url(#clip0_794_7624)">
<path d="M0 0.499756H40V27.4998H0V0.499756Z" fill="#D01C1F"/>
<path d="M0 5.89978H40V22.0998H0V5.89978Z" fill="#00A95C"/>
<path d="M17.32 10.5437H19.36L20 8.59973L20.64 10.5437H22.68L21 11.7857L21.68 13.7567L20 12.5417L18.32 13.7567L19 11.7857L17.32 10.5437ZM10 9.54473C10.909 14.1648 16.1233 17.2937 21.646 16.533C25.9337 15.9427 29.2943 13.1313 30 9.54473C30 14.9876 25.523 19.3997 20 19.3997C14.477 19.3997 10 14.9876 10 9.54473Z" fill="#FFD700"/>
</g>
<defs>
<clipPath id="clip0_794_7624">
<rect y="0.499756" width="40" height="27" rx="4" fill="white"/>
</clipPath>
</defs>
</svg>
