<svg width="20" height="20" viewBox="0 0 20 20" fill="none" xmlns="http://www.w3.org/2000/svg">
<path d="M18.3334 10.6248C18.1676 10.6248 18.0086 10.559 17.8914 10.4418C17.7742 10.3245 17.7084 10.1656 17.7084 9.99981C17.7084 8.47518 17.2564 6.98477 16.4094 5.71706C15.5624 4.44935 14.3585 3.46129 12.9499 2.87783C11.5414 2.29436 9.99141 2.14171 8.49608 2.43918C7.00075 2.73664 5.62722 3.47086 4.54919 4.54898C4.29077 4.80775 4.05075 5.08426 3.83085 5.37648C3.7314 5.50909 3.58334 5.59675 3.41924 5.6202C3.25515 5.64364 3.08846 5.60093 2.95585 5.50148C2.82325 5.40202 2.73558 5.25396 2.71214 5.08987C2.68869 4.92577 2.7314 4.75909 2.83085 4.62648C3.08662 4.28854 3.36504 3.96836 3.66419 3.66814C4.91679 2.41501 6.51287 1.56147 8.25058 1.21545C9.98829 0.869441 11.7896 1.0465 13.4267 1.72424C15.0637 2.40198 16.4631 3.54995 17.4477 5.023C18.4324 6.49604 18.9581 8.22799 18.9584 9.99981C18.9584 10.1656 18.8925 10.3245 18.7753 10.4418C18.6581 10.559 18.4991 10.6248 18.3334 10.6248ZM10 18.9581C8.82353 18.9584 7.65853 18.7268 6.57156 18.2767C5.48458 17.8266 4.49694 17.1667 3.66503 16.3348C2.83313 15.5029 2.17327 14.5153 1.72315 13.4283C1.27303 12.3413 1.04147 11.1763 1.04169 9.99981C1.04169 9.83405 1.10754 9.67508 1.22475 9.55787C1.34196 9.44066 1.50093 9.37481 1.66669 9.37481C1.83245 9.37481 1.99142 9.44066 2.10863 9.55787C2.22584 9.67508 2.29169 9.83405 2.29169 9.99981C2.2916 11.5244 2.74364 13.0149 3.59064 14.2826C4.43763 15.5503 5.64154 16.5383 7.05011 17.1218C8.45868 17.7053 10.0086 17.8579 11.504 17.5604C12.9993 17.263 14.3728 16.5288 15.4509 15.4506C15.7091 15.1923 15.9489 14.916 16.1684 14.624C16.2711 14.5008 16.4172 14.4218 16.5765 14.4032C16.7358 14.3846 16.8962 14.4279 17.0245 14.5241C17.1528 14.6204 17.2393 14.7622 17.266 14.9203C17.2928 15.0785 17.2578 15.2409 17.1684 15.374C16.9129 15.7124 16.6345 16.0329 16.335 16.3331C15.505 17.1677 14.5178 17.8294 13.4304 18.28C12.343 18.7306 11.1771 18.9611 10 18.9581Z" fill="#4CAF50"/>
<path d="M17.0709 17.6954C16.9051 17.6954 16.7461 17.6295 16.6289 17.5123C16.5117 17.3951 16.4459 17.2361 16.4459 17.0704V15.3387H14.7134C14.5476 15.3387 14.3886 15.2729 14.2714 15.1557C14.1542 15.0384 14.0884 14.8795 14.0884 14.7137C14.0884 14.548 14.1542 14.389 14.2714 14.2718C14.3886 14.1546 14.5476 14.0887 14.7134 14.0887H17.0709C17.2366 14.0887 17.3956 14.1546 17.5128 14.2718C17.63 14.389 17.6959 14.548 17.6959 14.7137V17.0704C17.6959 17.2361 17.63 17.3951 17.5128 17.5123C17.3956 17.6295 17.2366 17.6954 17.0709 17.6954ZM5.28587 5.91038H2.9292C2.76344 5.91038 2.60447 5.84453 2.48726 5.72732C2.37005 5.61011 2.3042 5.45114 2.3042 5.28538V2.92871C2.3042 2.76295 2.37005 2.60398 2.48726 2.48677C2.60447 2.36956 2.76344 2.30371 2.9292 2.30371C3.09496 2.30371 3.25393 2.36956 3.37114 2.48677C3.48835 2.60398 3.5542 2.76295 3.5542 2.92871V4.66038H5.28587C5.45163 4.66038 5.6106 4.72623 5.72781 4.84344C5.84502 4.96065 5.91087 5.11962 5.91087 5.28538C5.91087 5.45114 5.84502 5.61011 5.72781 5.72732C5.6106 5.84453 5.45163 5.91038 5.28587 5.91038ZM14.1217 9.60871L15.295 7.65288L9.58337 4.22288L8.40503 6.17871C8.20167 6.61042 8.10104 7.08335 8.11102 7.56046C8.12099 8.03756 8.24131 8.50588 8.46253 8.92871C8.47007 8.95154 8.47259 8.97574 8.4699 8.99963C8.46721 9.02352 8.45938 9.04655 8.44695 9.06714C8.43452 9.08772 8.41778 9.10537 8.39789 9.11887C8.378 9.13238 8.35542 9.14142 8.3317 9.14538C7.85445 9.14915 7.38456 9.26345 6.95891 9.47932C6.53325 9.69518 6.1634 10.0067 5.87837 10.3895L4.70503 12.3462L10.4209 15.7762L11.595 13.8204C11.7983 13.3887 11.899 12.9158 11.8892 12.4387C11.8793 11.9617 11.7593 11.4933 11.5384 11.0704C11.5308 11.0476 11.5283 11.0235 11.5309 10.9996C11.5336 10.9758 11.5413 10.9528 11.5537 10.9322C11.566 10.9117 11.5826 10.894 11.6024 10.8804C11.6222 10.8669 11.6447 10.8578 11.6684 10.8537C12.1457 10.8497 12.6155 10.7352 13.0412 10.5192C13.4668 10.3032 13.8367 9.99157 14.1217 9.60871Z" fill="#4CAF50"/>
<path d="M15.8648 6.70776L10.1474 3.27916C9.75265 3.04247 9.2408 3.17056 9.0041 3.56527C8.76741 3.95997 8.8955 4.47183 9.29021 4.70852L15.0077 8.13712C15.4024 8.37382 15.9142 8.24572 16.1509 7.85102C16.3876 7.45631 16.2595 6.94446 15.8648 6.70776Z" fill="#4CAF50"/>
<path d="M10.7234 15.2859L5.00594 11.8573C4.61123 11.6206 4.09938 11.7487 3.86268 12.1434C3.62599 12.5381 3.75408 13.05 4.14879 13.2866L9.86623 16.7152C10.2609 16.9519 10.7728 16.8238 11.0095 16.4291C11.2462 16.0344 11.1181 15.5226 10.7234 15.2859Z" fill="#4CAF50"/>
</svg>
