<svg width="22" height="22" viewBox="0 0 22 22" fill="none" xmlns="http://www.w3.org/2000/svg">
<path d="M12.6889 2.5625C14.2329 2.56176 15.7306 3.09041 16.932 4.06026C18.1334 5.03012 18.966 6.38256 19.291 7.89202C19.6159 9.40148 19.4135 10.9767 18.7175 12.355C18.0216 13.7333 16.8741 14.8313 15.4665 15.466C15.0166 16.4607 14.3321 17.3314 13.4718 18.0035C12.6115 18.6756 11.6009 19.1289 10.5269 19.3247C9.45288 19.5205 8.34739 19.4529 7.30524 19.1276C6.2631 18.8023 5.3154 18.2291 4.54344 17.4571C3.77147 16.6852 3.19826 15.7375 2.87298 14.6953C2.5477 13.6532 2.48005 12.5477 2.67584 11.4737C2.87162 10.3996 3.32499 9.38911 3.99707 8.52877C4.66915 7.66844 5.53989 6.98396 6.53459 6.53403C7.06965 5.35016 7.93487 4.34577 9.02648 3.64133C10.1181 2.93688 11.3897 2.5623 12.6889 2.5625ZM9.3139 7.625C8.64909 7.625 7.99078 7.75595 7.37657 8.01036C6.76236 8.26478 6.20427 8.63768 5.73418 9.10777C5.26408 9.57787 4.89118 10.136 4.63676 10.7502C4.38235 11.3644 4.2514 12.0227 4.2514 12.6875C4.2514 13.3523 4.38235 14.0106 4.63676 14.6248C4.89118 15.239 5.26408 15.7971 5.73418 16.2672C6.20427 16.7373 6.76236 17.1102 7.37657 17.3646C7.99078 17.6191 8.64909 17.75 9.3139 17.75C10.6566 17.75 11.9442 17.2166 12.8936 16.2672C13.843 15.3178 14.3764 14.0302 14.3764 12.6875C14.3764 11.3448 13.843 10.0572 12.8936 9.10777C11.9442 8.15837 10.6566 7.625 9.3139 7.625ZM10.1577 8.46875V9.3125H11.8452V11H8.47015C8.36473 10.9998 8.26306 11.0391 8.18515 11.1101C8.10724 11.1811 8.05875 11.2788 8.04923 11.3838C8.0397 11.4887 8.06983 11.5935 8.13368 11.6774C8.19754 11.7613 8.29048 11.8182 8.39422 11.837L8.47015 11.8438H10.1577C10.7171 11.8438 11.2536 12.066 11.6492 12.4616C12.0448 12.8572 12.267 13.3937 12.267 13.9531C12.267 14.5126 12.0448 15.0491 11.6492 15.4447C11.2536 15.8403 10.7171 16.0625 10.1577 16.0625V16.9062H8.47015V16.0625H6.78265V14.375H10.1577C10.2631 14.3752 10.3648 14.3359 10.4427 14.2649C10.5206 14.1939 10.5691 14.0962 10.5786 13.9912C10.5881 13.8863 10.558 13.7815 10.4941 13.6976C10.4303 13.6137 10.3373 13.5568 10.2336 13.538L10.1577 13.5313H8.47015C7.91071 13.5313 7.37419 13.309 6.9786 12.9134C6.58302 12.5178 6.36078 11.9813 6.36078 11.4219C6.36078 10.8624 6.58302 10.3259 6.9786 9.93032C7.37419 9.53474 7.91071 9.3125 8.47015 9.3125V8.46875H10.1577ZM12.6889 4.25C11.974 4.24916 11.267 4.40014 10.6148 4.69294C9.9626 4.98573 9.37999 5.41368 8.90553 5.94847C9.85919 5.89058 10.8143 6.03579 11.7076 6.37452C12.601 6.71324 13.4123 7.23776 14.0878 7.91338C14.7633 8.589 15.2878 9.40033 15.6264 10.2937C15.965 11.1871 16.1101 12.1422 16.0521 13.0959C16.8192 12.4138 17.3609 11.5146 17.6053 10.5176C17.8496 9.52063 17.7851 8.4729 17.4203 7.51339C17.0555 6.55388 16.4077 5.72795 15.5627 5.14512C14.7176 4.56229 13.7154 4.25012 12.6889 4.25Z" fill="#4CAF50"/>
</svg>
