<svg width="25" height="24" viewBox="0 0 25 24" fill="none" xmlns="http://www.w3.org/2000/svg">
<path fill-rule="evenodd" clip-rule="evenodd" d="M8.25 2C6.04086 2 4.25 3.79086 4.25 6V18C4.25 20.2091 6.04086 22 8.25 22H16.25C18.4591 22 20.25 20.2091 20.25 18V9.24264C20.25 8.18178 19.8286 7.16436 19.0784 6.41421L15.8358 3.17157C15.0856 2.42143 14.0682 2 13.0074 2H8.25ZM6.25 6C6.25 4.89543 7.14543 4 8.25 4H12.25V7.5C12.25 8.88071 13.3693 10 14.75 10H18.25V18C18.25 19.1046 17.3546 20 16.25 20H8.25C7.14543 20 6.25 19.1046 6.25 18V6ZM17.8171 8C17.7697 7.94022 17.7187 7.88291 17.6642 7.82843L14.4216 4.58579C14.3671 4.5313 14.3098 4.48028 14.25 4.43288V7.5C14.25 7.77614 14.4739 8 14.75 8H17.8171Z" fill="#3F3F46"/>
<path d="M8.25 13H12.25V11H8.25V13Z" fill="#4CAF50"/>
<path d="M8.25 15V17H16.25V15H8.25Z" fill="#4CAF50"/>
</svg>
