<svg width="19" height="22" viewBox="0 0 19 22" fill="none" xmlns="http://www.w3.org/2000/svg">
<mask id="path-1-outside-1_2355_60370" maskUnits="userSpaceOnUse" x="0" y="-0.125" width="19" height="22" fill="black">
<rect fill="white" y="-0.125" width="19" height="22"/>
<path d="M9.64789 2.37159C5.97522 2.37159 2.98732 5.3595 2.98732 9.03213C2.98732 12.7048 5.97522 15.6927 9.64789 15.6927C13.3206 15.6927 16.3085 12.7048 16.3085 9.03217C16.3085 5.35954 13.3206 2.37159 9.64789 2.37159ZM9.64789 14.8986C6.4131 14.8986 3.78143 12.2669 3.78143 9.03217C3.78143 5.79742 6.4131 3.16571 9.64789 3.16571C12.8827 3.16571 15.5144 5.79738 15.5144 9.03213C15.5144 12.2669 12.8827 14.8986 9.64789 14.8986ZM18.2426 17.9344L16.0314 14.1045C17.1409 12.711 17.805 10.9478 17.805 9.03217C17.805 4.53429 14.1458 0.875 9.64789 0.875C5.15001 0.875 1.49076 4.53429 1.49076 9.03213C1.49076 10.9477 2.15484 12.711 3.26442 14.1045L1.0532 17.9343C1.01304 18.0039 0.994916 18.084 1.00123 18.1641C1.00754 18.2442 1.03799 18.3204 1.08856 18.3829C1.13912 18.4453 1.20743 18.4909 1.28446 18.5136C1.36148 18.5364 1.44361 18.5353 1.51999 18.5104L4.7902 17.4459L5.5034 20.8102C5.52005 20.8888 5.56015 20.9605 5.61839 21.0158C5.67663 21.0711 5.75028 21.1075 5.82961 21.1201C5.90894 21.1326 5.99022 21.1209 6.06272 21.0863C6.13522 21.0517 6.19553 20.996 6.23569 20.9264L8.44473 17.1003C9.24249 17.2189 10.0534 17.2189 10.8511 17.1003L13.0601 20.9265C13.1003 20.996 13.1606 21.0518 13.2331 21.0863C13.3056 21.1209 13.3869 21.1327 13.4662 21.1201C13.5456 21.1075 13.6192 21.0712 13.6774 21.0158C13.7357 20.9605 13.7758 20.8889 13.7924 20.8103L14.5056 17.4459L17.7758 18.5105C17.8522 18.5354 17.9344 18.5365 18.0114 18.5137C18.0884 18.4909 18.1567 18.4453 18.2073 18.3829C18.2579 18.3205 18.2883 18.2442 18.2946 18.1641C18.3009 18.0841 18.2828 18.0039 18.2426 17.9344ZM6.06555 19.6329L5.47548 16.8493C5.46393 16.7949 5.44104 16.7435 5.40832 16.6984C5.37561 16.6534 5.33378 16.6157 5.28556 16.5879C5.23735 16.56 5.18382 16.5426 5.12844 16.5368C5.07307 16.531 5.0171 16.5369 4.96415 16.5541L2.25851 17.4349L3.81895 14.7322C4.84706 15.7834 6.15592 16.5587 7.62329 16.9349L6.06555 19.6329ZM2.28488 9.03213C2.28488 4.97217 5.58793 1.66912 9.64789 1.66912C13.7079 1.66912 17.0109 4.97217 17.0109 9.03213C17.0109 13.0921 13.7079 16.3951 9.64789 16.3951C5.58793 16.3951 2.28488 13.0921 2.28488 9.03213ZM14.3316 16.5542C14.2787 16.537 14.2227 16.5311 14.1673 16.5369C14.1119 16.5427 14.0584 16.5601 14.0102 16.5879C13.962 16.6158 13.9202 16.6534 13.8874 16.6985C13.8547 16.7435 13.8318 16.7949 13.8203 16.8494L13.2302 19.6329L11.6725 16.9349C13.1398 16.5588 14.4487 15.7834 15.4768 14.7322L17.0372 17.4349L14.3316 16.5542ZM14.4406 7.91826C14.416 7.84263 14.3693 7.77612 14.3065 7.72734C14.2437 7.67856 14.1676 7.64977 14.0883 7.64469L11.1161 7.45454L10.0169 4.68668C9.98753 4.61277 9.93666 4.54938 9.87087 4.50471C9.80507 4.46005 9.72738 4.43617 9.64785 4.43617C9.56833 4.43617 9.49064 4.46005 9.42484 4.50471C9.35905 4.54938 9.30818 4.61277 9.27883 4.68668L8.17957 7.45454L5.20743 7.64469C5.12809 7.64981 5.05211 7.67862 4.98933 7.72739C4.92655 7.77617 4.87985 7.84267 4.85528 7.91828C4.83071 7.9939 4.8294 8.07514 4.85153 8.15151C4.87365 8.22787 4.91818 8.29584 4.97936 8.34661L7.27209 10.2474L6.53448 13.1327C6.51478 13.2098 6.51868 13.2909 6.54566 13.3657C6.57264 13.4405 6.62146 13.5055 6.6858 13.5522C6.75013 13.599 6.82701 13.6254 6.9065 13.6279C6.98598 13.6304 7.06439 13.609 7.13158 13.5665L9.64789 11.9735L12.1641 13.5665C12.2277 13.6068 12.3013 13.6281 12.3765 13.6281C12.437 13.6281 12.4967 13.6143 12.5511 13.5877C12.6054 13.561 12.653 13.5224 12.6901 13.4746C12.7272 13.4268 12.7529 13.3711 12.7652 13.3119C12.7776 13.2527 12.7762 13.1914 12.7612 13.1328L12.0236 10.2474L14.3164 8.34665C14.3776 8.29589 14.4221 8.22791 14.4443 8.15154C14.4664 8.07516 14.4651 7.9939 14.4406 7.91826ZM11.3232 9.79647C11.2654 9.84447 11.2223 9.90792 11.199 9.97944C11.1758 10.051 11.1734 10.1276 11.192 10.2005L11.7442 12.3608L9.86032 11.168C9.79679 11.1278 9.72313 11.1064 9.64793 11.1064C9.57274 11.1064 9.49908 11.1278 9.43555 11.168L7.55162 12.3608L8.10389 10.2005C8.12252 10.1276 8.12007 10.051 8.09683 9.97944C8.07359 9.90792 8.03052 9.84447 7.97263 9.79647L6.25602 8.37333L8.4813 8.23095C8.55634 8.22615 8.62848 8.20013 8.68932 8.15593C8.75016 8.11173 8.79719 8.05117 8.82495 7.98128L9.64789 5.90895L10.4709 7.98128C10.4987 8.05117 10.5457 8.11173 10.6066 8.15593C10.6674 8.20013 10.7395 8.22615 10.8146 8.23095L13.0398 8.37333L11.3232 9.79647Z"/>
</mask>
<path d="M9.64789 2.37159C5.97522 2.37159 2.98732 5.3595 2.98732 9.03213C2.98732 12.7048 5.97522 15.6927 9.64789 15.6927C13.3206 15.6927 16.3085 12.7048 16.3085 9.03217C16.3085 5.35954 13.3206 2.37159 9.64789 2.37159ZM9.64789 14.8986C6.4131 14.8986 3.78143 12.2669 3.78143 9.03217C3.78143 5.79742 6.4131 3.16571 9.64789 3.16571C12.8827 3.16571 15.5144 5.79738 15.5144 9.03213C15.5144 12.2669 12.8827 14.8986 9.64789 14.8986ZM18.2426 17.9344L16.0314 14.1045C17.1409 12.711 17.805 10.9478 17.805 9.03217C17.805 4.53429 14.1458 0.875 9.64789 0.875C5.15001 0.875 1.49076 4.53429 1.49076 9.03213C1.49076 10.9477 2.15484 12.711 3.26442 14.1045L1.0532 17.9343C1.01304 18.0039 0.994916 18.084 1.00123 18.1641C1.00754 18.2442 1.03799 18.3204 1.08856 18.3829C1.13912 18.4453 1.20743 18.4909 1.28446 18.5136C1.36148 18.5364 1.44361 18.5353 1.51999 18.5104L4.7902 17.4459L5.5034 20.8102C5.52005 20.8888 5.56015 20.9605 5.61839 21.0158C5.67663 21.0711 5.75028 21.1075 5.82961 21.1201C5.90894 21.1326 5.99022 21.1209 6.06272 21.0863C6.13522 21.0517 6.19553 20.996 6.23569 20.9264L8.44473 17.1003C9.24249 17.2189 10.0534 17.2189 10.8511 17.1003L13.0601 20.9265C13.1003 20.996 13.1606 21.0518 13.2331 21.0863C13.3056 21.1209 13.3869 21.1327 13.4662 21.1201C13.5456 21.1075 13.6192 21.0712 13.6774 21.0158C13.7357 20.9605 13.7758 20.8889 13.7924 20.8103L14.5056 17.4459L17.7758 18.5105C17.8522 18.5354 17.9344 18.5365 18.0114 18.5137C18.0884 18.4909 18.1567 18.4453 18.2073 18.3829C18.2579 18.3205 18.2883 18.2442 18.2946 18.1641C18.3009 18.0841 18.2828 18.0039 18.2426 17.9344ZM6.06555 19.6329L5.47548 16.8493C5.46393 16.7949 5.44104 16.7435 5.40832 16.6984C5.37561 16.6534 5.33378 16.6157 5.28556 16.5879C5.23735 16.56 5.18382 16.5426 5.12844 16.5368C5.07307 16.531 5.0171 16.5369 4.96415 16.5541L2.25851 17.4349L3.81895 14.7322C4.84706 15.7834 6.15592 16.5587 7.62329 16.9349L6.06555 19.6329ZM2.28488 9.03213C2.28488 4.97217 5.58793 1.66912 9.64789 1.66912C13.7079 1.66912 17.0109 4.97217 17.0109 9.03213C17.0109 13.0921 13.7079 16.3951 9.64789 16.3951C5.58793 16.3951 2.28488 13.0921 2.28488 9.03213ZM14.3316 16.5542C14.2787 16.537 14.2227 16.5311 14.1673 16.5369C14.1119 16.5427 14.0584 16.5601 14.0102 16.5879C13.962 16.6158 13.9202 16.6534 13.8874 16.6985C13.8547 16.7435 13.8318 16.7949 13.8203 16.8494L13.2302 19.6329L11.6725 16.9349C13.1398 16.5588 14.4487 15.7834 15.4768 14.7322L17.0372 17.4349L14.3316 16.5542ZM14.4406 7.91826C14.416 7.84263 14.3693 7.77612 14.3065 7.72734C14.2437 7.67856 14.1676 7.64977 14.0883 7.64469L11.1161 7.45454L10.0169 4.68668C9.98753 4.61277 9.93666 4.54938 9.87087 4.50471C9.80507 4.46005 9.72738 4.43617 9.64785 4.43617C9.56833 4.43617 9.49064 4.46005 9.42484 4.50471C9.35905 4.54938 9.30818 4.61277 9.27883 4.68668L8.17957 7.45454L5.20743 7.64469C5.12809 7.64981 5.05211 7.67862 4.98933 7.72739C4.92655 7.77617 4.87985 7.84267 4.85528 7.91828C4.83071 7.9939 4.8294 8.07514 4.85153 8.15151C4.87365 8.22787 4.91818 8.29584 4.97936 8.34661L7.27209 10.2474L6.53448 13.1327C6.51478 13.2098 6.51868 13.2909 6.54566 13.3657C6.57264 13.4405 6.62146 13.5055 6.6858 13.5522C6.75013 13.599 6.82701 13.6254 6.9065 13.6279C6.98598 13.6304 7.06439 13.609 7.13158 13.5665L9.64789 11.9735L12.1641 13.5665C12.2277 13.6068 12.3013 13.6281 12.3765 13.6281C12.437 13.6281 12.4967 13.6143 12.5511 13.5877C12.6054 13.561 12.653 13.5224 12.6901 13.4746C12.7272 13.4268 12.7529 13.3711 12.7652 13.3119C12.7776 13.2527 12.7762 13.1914 12.7612 13.1328L12.0236 10.2474L14.3164 8.34665C14.3776 8.29589 14.4221 8.22791 14.4443 8.15154C14.4664 8.07516 14.4651 7.9939 14.4406 7.91826ZM11.3232 9.79647C11.2654 9.84447 11.2223 9.90792 11.199 9.97944C11.1758 10.051 11.1734 10.1276 11.192 10.2005L11.7442 12.3608L9.86032 11.168C9.79679 11.1278 9.72313 11.1064 9.64793 11.1064C9.57274 11.1064 9.49908 11.1278 9.43555 11.168L7.55162 12.3608L8.10389 10.2005C8.12252 10.1276 8.12007 10.051 8.09683 9.97944C8.07359 9.90792 8.03052 9.84447 7.97263 9.79647L6.25602 8.37333L8.4813 8.23095C8.55634 8.22615 8.62848 8.20013 8.68932 8.15593C8.75016 8.11173 8.79719 8.05117 8.82495 7.98128L9.64789 5.90895L10.4709 7.98128C10.4987 8.05117 10.5457 8.11173 10.6066 8.15593C10.6674 8.20013 10.7395 8.22615 10.8146 8.23095L13.0398 8.37333L11.3232 9.79647Z" fill="#4CAF50"/>
<path d="M9.64789 2.37159C5.97522 2.37159 2.98732 5.3595 2.98732 9.03213C2.98732 12.7048 5.97522 15.6927 9.64789 15.6927C13.3206 15.6927 16.3085 12.7048 16.3085 9.03217C16.3085 5.35954 13.3206 2.37159 9.64789 2.37159ZM9.64789 14.8986C6.4131 14.8986 3.78143 12.2669 3.78143 9.03217C3.78143 5.79742 6.4131 3.16571 9.64789 3.16571C12.8827 3.16571 15.5144 5.79738 15.5144 9.03213C15.5144 12.2669 12.8827 14.8986 9.64789 14.8986ZM18.2426 17.9344L16.0314 14.1045C17.1409 12.711 17.805 10.9478 17.805 9.03217C17.805 4.53429 14.1458 0.875 9.64789 0.875C5.15001 0.875 1.49076 4.53429 1.49076 9.03213C1.49076 10.9477 2.15484 12.711 3.26442 14.1045L1.0532 17.9343C1.01304 18.0039 0.994916 18.084 1.00123 18.1641C1.00754 18.2442 1.03799 18.3204 1.08856 18.3829C1.13912 18.4453 1.20743 18.4909 1.28446 18.5136C1.36148 18.5364 1.44361 18.5353 1.51999 18.5104L4.7902 17.4459L5.5034 20.8102C5.52005 20.8888 5.56015 20.9605 5.61839 21.0158C5.67663 21.0711 5.75028 21.1075 5.82961 21.1201C5.90894 21.1326 5.99022 21.1209 6.06272 21.0863C6.13522 21.0517 6.19553 20.996 6.23569 20.9264L8.44473 17.1003C9.24249 17.2189 10.0534 17.2189 10.8511 17.1003L13.0601 20.9265C13.1003 20.996 13.1606 21.0518 13.2331 21.0863C13.3056 21.1209 13.3869 21.1327 13.4662 21.1201C13.5456 21.1075 13.6192 21.0712 13.6774 21.0158C13.7357 20.9605 13.7758 20.8889 13.7924 20.8103L14.5056 17.4459L17.7758 18.5105C17.8522 18.5354 17.9344 18.5365 18.0114 18.5137C18.0884 18.4909 18.1567 18.4453 18.2073 18.3829C18.2579 18.3205 18.2883 18.2442 18.2946 18.1641C18.3009 18.0841 18.2828 18.0039 18.2426 17.9344ZM6.06555 19.6329L5.47548 16.8493C5.46393 16.7949 5.44104 16.7435 5.40832 16.6984C5.37561 16.6534 5.33378 16.6157 5.28556 16.5879C5.23735 16.56 5.18382 16.5426 5.12844 16.5368C5.07307 16.531 5.0171 16.5369 4.96415 16.5541L2.25851 17.4349L3.81895 14.7322C4.84706 15.7834 6.15592 16.5587 7.62329 16.9349L6.06555 19.6329ZM2.28488 9.03213C2.28488 4.97217 5.58793 1.66912 9.64789 1.66912C13.7079 1.66912 17.0109 4.97217 17.0109 9.03213C17.0109 13.0921 13.7079 16.3951 9.64789 16.3951C5.58793 16.3951 2.28488 13.0921 2.28488 9.03213ZM14.3316 16.5542C14.2787 16.537 14.2227 16.5311 14.1673 16.5369C14.1119 16.5427 14.0584 16.5601 14.0102 16.5879C13.962 16.6158 13.9202 16.6534 13.8874 16.6985C13.8547 16.7435 13.8318 16.7949 13.8203 16.8494L13.2302 19.6329L11.6725 16.9349C13.1398 16.5588 14.4487 15.7834 15.4768 14.7322L17.0372 17.4349L14.3316 16.5542ZM14.4406 7.91826C14.416 7.84263 14.3693 7.77612 14.3065 7.72734C14.2437 7.67856 14.1676 7.64977 14.0883 7.64469L11.1161 7.45454L10.0169 4.68668C9.98753 4.61277 9.93666 4.54938 9.87087 4.50471C9.80507 4.46005 9.72738 4.43617 9.64785 4.43617C9.56833 4.43617 9.49064 4.46005 9.42484 4.50471C9.35905 4.54938 9.30818 4.61277 9.27883 4.68668L8.17957 7.45454L5.20743 7.64469C5.12809 7.64981 5.05211 7.67862 4.98933 7.72739C4.92655 7.77617 4.87985 7.84267 4.85528 7.91828C4.83071 7.9939 4.8294 8.07514 4.85153 8.15151C4.87365 8.22787 4.91818 8.29584 4.97936 8.34661L7.27209 10.2474L6.53448 13.1327C6.51478 13.2098 6.51868 13.2909 6.54566 13.3657C6.57264 13.4405 6.62146 13.5055 6.6858 13.5522C6.75013 13.599 6.82701 13.6254 6.9065 13.6279C6.98598 13.6304 7.06439 13.609 7.13158 13.5665L9.64789 11.9735L12.1641 13.5665C12.2277 13.6068 12.3013 13.6281 12.3765 13.6281C12.437 13.6281 12.4967 13.6143 12.5511 13.5877C12.6054 13.561 12.653 13.5224 12.6901 13.4746C12.7272 13.4268 12.7529 13.3711 12.7652 13.3119C12.7776 13.2527 12.7762 13.1914 12.7612 13.1328L12.0236 10.2474L14.3164 8.34665C14.3776 8.29589 14.4221 8.22791 14.4443 8.15154C14.4664 8.07516 14.4651 7.9939 14.4406 7.91826ZM11.3232 9.79647C11.2654 9.84447 11.2223 9.90792 11.199 9.97944C11.1758 10.051 11.1734 10.1276 11.192 10.2005L11.7442 12.3608L9.86032 11.168C9.79679 11.1278 9.72313 11.1064 9.64793 11.1064C9.57274 11.1064 9.49908 11.1278 9.43555 11.168L7.55162 12.3608L8.10389 10.2005C8.12252 10.1276 8.12007 10.051 8.09683 9.97944C8.07359 9.90792 8.03052 9.84447 7.97263 9.79647L6.25602 8.37333L8.4813 8.23095C8.55634 8.22615 8.62848 8.20013 8.68932 8.15593C8.75016 8.11173 8.79719 8.05117 8.82495 7.98128L9.64789 5.90895L10.4709 7.98128C10.4987 8.05117 10.5457 8.11173 10.6066 8.15593C10.6674 8.20013 10.7395 8.22615 10.8146 8.23095L13.0398 8.37333L11.3232 9.79647Z" stroke="#4CAF50" stroke-width="0.225" mask="url(#path-1-outside-1_2355_60370)"/>
</svg>
