<svg width="18" height="16" viewBox="0 0 18 16" fill="none" xmlns="http://www.w3.org/2000/svg">
<path d="M0.25 1C0.25 0.767936 0.342187 0.545376 0.506281 0.381282C0.670376 0.217187 0.892935 0.125 1.125 0.125H16.875C17.1071 0.125 17.3296 0.217187 17.4937 0.381282C17.6578 0.545376 17.75 0.767936 17.75 1V5.8125C17.1698 5.8125 16.6134 6.04297 16.2032 6.4532C15.793 6.86344 15.5625 7.41984 15.5625 8C15.5625 8.58016 15.793 9.13656 16.2032 9.5468C16.6134 9.95703 17.1698 10.1875 17.75 10.1875V15C17.75 15.2321 17.6578 15.4546 17.4937 15.6187C17.3296 15.7828 17.1071 15.875 16.875 15.875H1.125C0.892935 15.875 0.670376 15.7828 0.506281 15.6187C0.342187 15.4546 0.25 15.2321 0.25 15V1ZM5.57437 14.125C5.66456 13.8686 5.83211 13.6466 6.05388 13.4895C6.27566 13.3324 6.54073 13.248 6.8125 13.248C7.08427 13.248 7.34934 13.3324 7.57112 13.4895C7.79289 13.6466 7.96044 13.8686 8.05062 14.125H16V11.528C15.3427 11.2022 14.7895 10.6993 14.4027 10.076C14.0159 9.45262 13.811 8.7336 13.811 8C13.811 7.2664 14.0159 6.54738 14.4027 5.92403C14.7895 5.30067 15.3427 4.79776 16 4.472V1.875H8.05062C7.96044 2.13137 7.79289 2.35342 7.57112 2.51051C7.34934 2.66759 7.08427 2.75195 6.8125 2.75195C6.54073 2.75195 6.27566 2.66759 6.05388 2.51051C5.83211 2.35342 5.66456 2.13137 5.57437 1.875H2V14.125H5.57437ZM6.8125 7.125C6.4644 7.125 6.13056 6.98672 5.88442 6.74058C5.63828 6.49444 5.5 6.1606 5.5 5.8125C5.5 5.4644 5.63828 5.13056 5.88442 4.88442C6.13056 4.63828 6.4644 4.5 6.8125 4.5C7.1606 4.5 7.49444 4.63828 7.74058 4.88442C7.98672 5.13056 8.125 5.4644 8.125 5.8125C8.125 6.1606 7.98672 6.49444 7.74058 6.74058C7.49444 6.98672 7.1606 7.125 6.8125 7.125ZM6.8125 11.5C6.4644 11.5 6.13056 11.3617 5.88442 11.1156C5.63828 10.8694 5.5 10.5356 5.5 10.1875C5.5 9.8394 5.63828 9.50556 5.88442 9.25942C6.13056 9.01328 6.4644 8.875 6.8125 8.875C7.1606 8.875 7.49444 9.01328 7.74058 9.25942C7.98672 9.50556 8.125 9.8394 8.125 10.1875C8.125 10.5356 7.98672 10.8694 7.74058 11.1156C7.49444 11.3617 7.1606 11.5 6.8125 11.5Z" fill="#4CAF50"/>
</svg>
