<svg width="40" height="28" viewBox="0 0 40 28" fill="none" xmlns="http://www.w3.org/2000/svg">
<g clip-path="url(#clip0_794_7612)">
<path d="M0 0.499756H40V27.4998H0V0.499756Z" fill="white"/>
<path d="M0 0.499756H40V2.57607H0V0.499756ZM0 4.65239H40V6.7287H0V4.65239ZM0 8.80502H40V10.8813H0V8.80502ZM0 12.9577H40V15.034H0V12.9577ZM0 17.1182H40V19.1945H0V17.1182ZM0 21.2708H40V23.3471H0V21.2708ZM0 25.4234H40V27.4998H0V25.4234Z" fill="#D80027"/>
<path d="M0 0.499756H20V15.034H0V0.499756Z" fill="#2E52B2"/>
<path d="M3.72712 11.4656L3.41523 10.455L3.07215 11.4656H2.04291L2.87722 12.0735L2.56532 13.084L3.41523 12.4603L4.24174 13.084L3.92205 12.0735L4.77195 11.4656H3.72712ZM8.11698 11.4656L7.79729 10.455L7.46981 11.4656H6.44057L7.27488 12.0735L6.96299 13.084L7.79729 12.4603L8.6394 13.084L8.32751 12.0735L9.16182 11.4656H8.11698ZM12.5224 11.4656L12.1872 10.455L11.8753 11.4656H10.8226L11.6803 12.0735L11.3529 13.084L12.1872 12.4603L13.0449 13.084L12.7174 12.0735L13.5517 11.4656H12.5224ZM16.9045 11.4656L16.5926 10.455L16.2651 11.4656H15.2281L16.0702 12.0735L15.7583 13.084L16.5926 12.4603L17.4347 13.084L17.0994 12.0735L17.9571 11.4656H16.9045ZM7.79729 6.4445L7.46981 7.45503H6.44057L7.27488 8.07872L6.96299 9.07345L7.79729 8.45766L8.6394 9.07345L8.32751 8.07872L9.16182 7.45503H8.11698L7.79729 6.4445ZM3.41523 6.4445L3.07215 7.45503H2.04291L2.87722 8.07872L2.56532 9.07345L3.41523 8.45766L4.24174 9.07345L3.92205 8.07872L4.77195 7.45503H3.72712L3.41523 6.4445ZM12.1872 6.4445L11.8753 7.45503H10.8226L11.6803 8.07872L11.3529 9.07345L12.1872 8.45766L13.0449 9.07345L12.7174 8.07872L13.5517 7.45503H12.5224L12.1872 6.4445ZM16.5926 6.4445L16.2651 7.45503H15.2281L16.0702 8.07872L15.7583 9.07345L16.5926 8.45766L17.4347 9.07345L17.0994 8.07872L17.9571 7.45503H16.9045L16.5926 6.4445ZM3.41523 2.44977L3.07215 3.4445H2.04291L2.87722 4.06819L2.56532 5.07082L3.41523 4.44714L4.24174 5.07082L3.92205 4.06819L4.77195 3.4445H3.72712L3.41523 2.44977ZM7.79729 2.44977L7.46981 3.4445H6.44057L7.27488 4.06819L6.96299 5.07082L7.79729 4.44714L8.6394 5.07082L8.32751 4.06819L9.16182 3.4445H8.11698L7.79729 2.44977ZM12.1872 2.44977L11.8753 3.4445H10.8226L11.6803 4.06819L11.3529 5.07082L12.1872 4.44714L13.0449 5.07082L12.7174 4.06819L13.5517 3.4445H12.5224L12.1872 2.44977ZM16.5926 2.44977L16.2651 3.4445H15.2281L16.0702 4.06819L15.7583 5.07082L16.5926 4.44714L17.4347 5.07082L17.0994 4.06819L17.9571 3.4445H16.9045L16.5926 2.44977Z" fill="white"/>
</g>
<defs>
<clipPath id="clip0_794_7612">
<rect y="0.499756" width="40" height="27" rx="4" fill="white"/>
</clipPath>
</defs>
</svg>
