<svg width="24" height="24" viewBox="0 0 24 24" fill="none" xmlns="http://www.w3.org/2000/svg">
<path d="M13 6.5V7.07089C16.3923 7.55612 19 10.4735 19 14C19 14.1431 18.9957 14.2853 18.9872 14.4263C18.9689 14.7301 19.2013 15 19.5057 15L23.5 15C23.7761 15 24 14.7761 24 14.5V14C24 12.3949 23.0546 11.0107 21.6903 10.3736C22.007 10.0273 22.2748 9.63641 22.4844 9.21145C22.8971 8.37446 23.0674 7.43865 22.9759 6.50992C22.8845 5.58118 22.5349 4.69658 21.9668 3.95619C21.3987 3.21581 20.6347 2.6492 19.7613 2.32047C18.8878 1.99174 17.9398 1.91401 17.0245 2.09607C16.1092 2.27814 15.2632 2.71273 14.582 3.35068C13.9009 3.98863 13.4119 4.80447 13.1704 5.70591L13 6.5Z" fill="#3CCB7F"/>
<path d="M0 14.5C0 14.7761 0.223858 15 0.5 15L5.07111 15C5.02425 14.6732 5 14.3393 5 14C5 10.4735 7.60771 7.55612 11 7.07089V6.5L10.8296 5.70591C10.5881 4.80447 10.0991 3.98863 9.41796 3.35068C8.73683 2.71273 7.89075 2.27814 6.97545 2.09607C6.06015 1.91401 5.11217 1.99174 4.23875 2.32047C3.36533 2.6492 2.60135 3.21581 2.03323 3.95619C1.46512 4.69658 1.11555 5.58118 1.02408 6.50992C0.932604 7.43865 1.10288 8.37446 1.51564 9.21145C1.72521 9.63641 1.99304 10.0273 2.30967 10.3736C0.945372 11.0107 0 12.3949 0 14V14.5Z" fill="#3CCB7F"/>
<path d="M7 14C7 11.2386 9.23858 9 12 9C14.7614 9 17 11.2386 17 14C17 15.1256 16.6281 16.1643 16.0004 17C18.2093 17.0002 20 18.791 20 21V21.5C20 21.7761 19.7761 22 19.5 22H4.5C4.22386 22 4 21.7761 4 21.5V21C4 18.791 5.79066 17.0002 7.99963 17C7.37194 16.1643 7 15.1256 7 14Z" fill="#3CCB7F"/>
</svg>
