<svg width="104" height="49" viewBox="0 0 104 49" fill="none" xmlns="http://www.w3.org/2000/svg">
<path d="M36.8659 35.9174C36.8659 36.3585 36.8375 36.7569 36.7806 37.1126H27.7949C27.866 38.0517 28.2146 38.8059 28.8407 39.375C29.4668 39.9442 30.2352 40.2288 31.1458 40.2288C32.4549 40.2288 33.3798 39.681 33.9205 38.5853H36.5458C36.1901 39.6667 35.5426 40.5561 34.6035 41.2533C33.6786 41.9363 32.526 42.2778 31.1458 42.2778C30.0217 42.2778 29.0114 42.0288 28.115 41.5308C27.2328 41.0185 26.5356 40.307 26.0233 39.3964C25.5253 38.4715 25.2763 37.4043 25.2763 36.1948C25.2763 34.9853 25.5182 33.9253 26.002 33.0146C26.5 32.0897 27.1901 31.3783 28.0723 30.8802C28.9688 30.3822 29.9933 30.1332 31.1458 30.1332C32.2557 30.1332 33.2446 30.3751 34.1126 30.8589C34.9806 31.3427 35.6565 32.0257 36.1403 32.9079C36.624 33.7759 36.8659 34.779 36.8659 35.9174ZM34.326 35.149C34.3118 34.2525 33.9917 33.534 33.3656 32.9933C32.7395 32.4526 31.964 32.1822 31.0391 32.1822C30.1996 32.1822 29.481 32.4526 28.8834 32.9933C28.2858 33.5197 27.93 34.2383 27.8162 35.149H34.326ZM43.5292 42.2778C42.6043 42.2778 41.7719 42.1142 41.032 41.7869C40.3063 41.4454 39.73 40.99 39.3031 40.4209C38.8763 39.8375 38.6486 39.1901 38.6201 38.4786H41.1387C41.1814 38.9766 41.4162 39.3964 41.843 39.7379C42.2841 40.0652 42.832 40.2288 43.4865 40.2288C44.1695 40.2288 44.696 40.1007 45.0659 39.8446C45.4501 39.5742 45.6422 39.2327 45.6422 38.8201C45.6422 38.379 45.4288 38.0517 45.0019 37.8383C44.5893 37.6249 43.9276 37.3901 43.0169 37.1339C42.1347 36.8921 41.4162 36.6573 40.8612 36.4296C40.3063 36.2019 39.8225 35.8533 39.4098 35.3838C39.0114 34.9142 38.8122 34.2952 38.8122 33.5269C38.8122 32.9008 38.9972 32.3316 39.3672 31.8194C39.7371 31.2929 40.2636 30.8802 40.9466 30.5814C41.6438 30.2826 42.4407 30.1332 43.3371 30.1332C44.6746 30.1332 45.7489 30.4747 46.56 31.1577C47.3853 31.8265 47.8264 32.7442 47.8833 33.911H45.4501C45.4074 33.3846 45.194 32.9648 44.8098 32.6518C44.4256 32.3387 43.9063 32.1822 43.2517 32.1822C42.6114 32.1822 42.1205 32.3031 41.779 32.545C41.4375 32.7869 41.2668 33.1071 41.2668 33.5055C41.2668 33.8186 41.3806 34.0818 41.6083 34.2952C41.8359 34.5087 42.1134 34.6794 42.4407 34.8075C42.7679 34.9213 43.2517 35.0707 43.892 35.2557C44.7458 35.4834 45.443 35.7181 45.9837 35.96C46.5387 36.1877 47.0153 36.5292 47.4138 36.9845C47.8122 37.4399 48.0185 38.0446 48.0327 38.7988C48.0327 39.4675 47.8477 40.0652 47.4778 40.5916C47.1078 41.1181 46.5813 41.5308 45.8983 41.8296C45.2296 42.1284 44.4399 42.2778 43.5292 42.2778ZM56.7448 30.1332C57.6412 30.1332 58.4381 30.3253 59.1353 30.7095C59.8468 31.0937 60.4017 31.6628 60.8001 32.417C61.2128 33.1711 61.4191 34.0818 61.4191 35.149V42.0857H59.0072V35.5118C59.0072 34.4589 58.744 33.6549 58.2175 33.1C57.691 32.5308 56.9725 32.2462 56.0618 32.2462C55.1511 32.2462 54.4254 32.5308 53.8847 33.1C53.3583 33.6549 53.095 34.4589 53.095 35.5118V42.0857H50.6618V26.2913H53.095V31.6913C53.5077 31.1933 54.027 30.8091 54.6531 30.5387C55.2934 30.2684 55.9907 30.1332 56.7448 30.1332ZM69.4532 32.3103H67.2761V42.0857H64.8216V32.3103H63.4342V30.3253H64.8216V29.4929C64.8216 28.1411 65.1773 27.1593 65.8888 26.5475C66.6144 25.9214 67.7457 25.6083 69.2824 25.6083V27.636C68.5425 27.636 68.0231 27.7783 67.7243 28.0629C67.4255 28.3332 67.2761 28.8099 67.2761 29.4929V30.3253H69.4532V32.3103ZM72.8475 28.7672C72.4064 28.7672 72.0364 28.6178 71.7376 28.319C71.4388 28.0202 71.2894 27.6502 71.2894 27.2091C71.2894 26.768 71.4388 26.398 71.7376 26.0992C72.0364 25.8004 72.4064 25.651 72.8475 25.651C73.2744 25.651 73.6372 25.8004 73.936 26.0992C74.2348 26.398 74.3842 26.768 74.3842 27.2091C74.3842 27.6502 74.2348 28.0202 73.936 28.319C73.6372 28.6178 73.2744 28.7672 72.8475 28.7672ZM74.0427 30.3253V42.0857H71.6095V30.3253H74.0427ZM83.1708 30.1332C84.0957 30.1332 84.921 30.3253 85.6467 30.7095C86.3866 31.0937 86.9629 31.6628 87.3756 32.417C87.7882 33.1711 87.9945 34.0818 87.9945 35.149V42.0857H85.5827V35.5118C85.5827 34.4589 85.3195 33.6549 84.793 33.1C84.2665 32.5308 83.5479 32.2462 82.6373 32.2462C81.7266 32.2462 81.0009 32.5308 80.4602 33.1C79.9337 33.6549 79.6705 34.4589 79.6705 35.5118V42.0857H77.2373V30.3253H79.6705V31.6699C80.0689 31.1862 80.574 30.8091 81.1859 30.5387C81.812 30.2684 82.4736 30.1332 83.1708 30.1332ZM101.877 35.9174C101.877 36.3585 101.848 36.7569 101.791 37.1126H92.8057C92.8769 38.0517 93.2255 38.8059 93.8516 39.375C94.4776 39.9442 95.246 40.2288 96.1567 40.2288C97.4658 40.2288 98.3907 39.681 98.9314 38.5853H101.557C101.201 39.6667 100.553 40.5561 99.6144 41.2533C98.6895 41.9363 97.5369 42.2778 96.1567 42.2778C95.0326 42.2778 94.0223 42.0288 93.1259 41.5308C92.2437 41.0185 91.5464 40.307 91.0342 39.3964C90.5362 38.4715 90.2872 37.4043 90.2872 36.1948C90.2872 34.9853 90.5291 33.9253 91.0128 33.0146C91.5109 32.0897 92.201 31.3783 93.0832 30.8802C93.9796 30.3822 95.0041 30.1332 96.1567 30.1332C97.2666 30.1332 98.2555 30.3751 99.1235 30.8589C99.9914 31.3427 100.667 32.0257 101.151 32.9079C101.635 33.7759 101.877 34.779 101.877 35.9174ZM99.3369 35.149C99.3227 34.2525 99.0025 33.534 98.3764 32.9933C97.7503 32.4526 96.9749 32.1822 96.05 32.1822C95.2104 32.1822 94.4919 32.4526 93.8942 32.9933C93.2966 33.5197 92.9409 34.2383 92.8271 35.149H99.3369Z" fill="url(#paint0_linear_753_3660)"/>
<path d="M17.5103 31.4667C17.3468 35.9635 18.6686 40.3581 19.3499 41.9933H16.3861C15.8138 41.3392 15.2619 36.2701 15.0575 33.8173C15.221 30.547 14.785 26.7996 14.5465 25.3348C14.0559 21.6556 11.5486 16.9203 10.3563 15.0126C8.5576 12.478 6.37798 10.9662 6.17358 11.0002C6.50062 11.5726 9.53872 16.4775 10.3563 18.3852C12.4003 22.882 12.9113 26.8678 12.9113 28.2986L9.12992 26.6634L6.98373 25.0282C2.18034 20.0204 1.81383 18.3852 0.851746 15.728C-0.865208 10.9859 1.09021 3.6003 2.18034 0.500244C6.43185 2.29896 9.26619 4.45197 10.1519 5.30363C16.0386 10.291 16.5905 17.8742 16.5905 21.2468C16.754 22.882 16.9312 22.882 17.1015 22.7798L17.4081 21.2468C18.2257 15.3192 21.3258 10.9246 23.2335 8.98282C28.7114 4.40427 35.5315 3.25964 38.2568 3.25964C39.2379 12.0079 37.0986 17.8742 35.9062 19.7138C32.0635 27.8898 23.4038 29.6612 19.5543 29.525C19.9631 27.9715 21.6324 24.2446 22.4159 22.5754C23.07 20.3679 28.0615 14.8508 30.1736 12.5002C31.0729 11.1921 31.8439 10.9662 31.6736 11.0002C30.1201 11.8178 23.9975 16.6478 22.8247 18.6918C19.2477 24.926 17.4422 29.6612 17.5103 31.4667Z" fill="url(#paint1_linear_753_3660)"/>
<path d="M54.0141 19.024C52.8799 19.024 52.0017 18.9081 51.3797 18.6764C50.7699 18.4446 50.343 18.0848 50.0991 17.597C49.8552 17.0969 49.7149 16.4688 49.6783 15.7126L49.2941 5.54082H51.8554L52.2396 14.4869C52.264 15.0479 52.3249 15.4687 52.4225 15.7492C52.5201 16.0297 52.703 16.2188 52.9713 16.3164C53.2519 16.4139 53.6604 16.4627 54.1971 16.4627C54.6606 16.4627 54.9899 16.5847 55.185 16.8286C55.3923 17.0603 55.496 17.3531 55.496 17.7068C55.496 18.0848 55.3679 18.402 55.1118 18.6581C54.8557 18.902 54.4898 19.024 54.0141 19.024ZM54.039 19.024L54.222 16.4627C54.6854 16.4627 55.0513 16.42 55.3196 16.3347C55.6002 16.2493 55.8197 16.0785 55.9782 15.8224C56.149 15.5541 56.2892 15.1638 56.399 14.6516C56.521 14.1393 56.6429 13.4563 56.7649 12.6026L59.1615 13.005C59.1371 13.188 59.1005 13.4014 59.0517 13.6453C59.0152 13.8893 58.9786 14.1393 58.942 14.3954C58.9176 14.6394 58.9054 14.8711 58.9054 15.0906C58.9054 15.3833 58.9664 15.6334 59.0883 15.8407C59.2225 16.0358 59.4542 16.1883 59.7835 16.2981C60.125 16.4078 60.6129 16.4627 61.2471 16.4627C61.7106 16.4627 62.0399 16.5847 62.235 16.8286C62.4301 17.0603 62.5277 17.3531 62.5277 17.7068C62.5277 18.0848 62.3997 18.402 62.1435 18.6581C61.8996 18.902 61.5398 19.024 61.0641 19.024C60.2226 19.024 59.5396 18.9447 59.0152 18.7861C58.4907 18.6276 58.1004 18.3593 57.8443 17.9812C57.5882 17.6031 57.4235 17.0847 57.3503 16.4261H58.2285C58.0089 17.0116 57.7528 17.4811 57.4601 17.8348C57.1674 18.1763 56.8381 18.4324 56.4722 18.6032C56.1063 18.7739 55.716 18.8837 55.3013 18.9325C54.8989 18.9935 54.4781 19.024 54.039 19.024ZM57.7711 10.7365C57.393 10.7365 57.0698 10.6084 56.8015 10.3523C56.5454 10.0962 56.4173 9.77908 56.4173 9.40099C56.4173 9.0229 56.5454 8.6997 56.8015 8.43138C57.0698 8.16305 57.393 8.02889 57.7711 8.02889C58.137 8.02889 58.448 8.16305 58.7041 8.43138C58.9725 8.6997 59.1066 9.0229 59.1066 9.40099C59.1066 9.77908 58.9725 10.0962 58.7041 10.3523C58.448 10.6084 58.137 10.7365 57.7711 10.7365ZM61.0603 19.024L61.2432 16.4627C61.6823 16.4627 62.0604 16.42 62.3775 16.3347C62.6946 16.2493 62.9629 16.0785 63.1825 15.8224C63.402 15.5541 63.5849 15.1638 63.7313 14.6516C63.8899 14.1393 64.0301 13.4563 64.1521 12.6026L66.5487 13.005C66.5243 13.188 66.4877 13.4014 66.4389 13.6453C66.4023 13.8893 66.3657 14.1393 66.3291 14.3954C66.3048 14.6394 66.2926 14.8711 66.2926 15.0906C66.2926 15.3102 66.3352 15.5053 66.4206 15.6761C66.506 15.8468 66.6402 15.9932 66.8231 16.1151C67.0182 16.2249 67.2683 16.3103 67.5732 16.3712C67.8903 16.4322 68.2745 16.4627 68.7257 16.4627C69.1892 16.4627 69.5185 16.5847 69.7137 16.8286C69.9088 17.0603 70.0064 17.3531 70.0064 17.7068C70.0064 18.0848 69.8783 18.402 69.6222 18.6581C69.3782 18.902 69.0185 19.024 68.5428 19.024C67.994 19.024 67.4939 18.9813 67.0426 18.8959C66.6036 18.8105 66.2194 18.6703 65.8901 18.4751C65.573 18.2678 65.3107 17.9995 65.1034 17.6702C64.9083 17.3287 64.7863 16.914 64.7375 16.4261H65.6157C65.3961 17.0116 65.1156 17.4811 64.7741 17.8348C64.4448 18.1763 64.0728 18.4324 63.6581 18.6032C63.2434 18.7739 62.8105 18.8837 62.3592 18.9325C61.9201 18.9935 61.4872 19.024 61.0603 19.024ZM66.1645 23.2683C65.8108 23.2683 65.5059 23.1403 65.2498 22.8841C65.0058 22.6402 64.8839 22.3475 64.8839 22.006C64.8839 21.6523 65.0058 21.3474 65.2498 21.0913C65.5059 20.8351 65.8108 20.7071 66.1645 20.7071C66.506 20.7071 66.7987 20.8351 67.0426 21.0913C67.2866 21.3474 67.4085 21.6523 67.4085 22.006C67.4085 22.3475 67.2866 22.6402 67.0426 22.8841C66.7987 23.1403 66.506 23.2683 66.1645 23.2683ZM62.9995 23.2683C62.6458 23.2683 62.3409 23.1403 62.0848 22.8841C61.8409 22.6402 61.7189 22.3475 61.7189 22.006C61.7189 21.6523 61.8409 21.3474 62.0848 21.0913C62.3409 20.8351 62.6458 20.7071 62.9995 20.7071C63.341 20.7071 63.6337 20.8351 63.8777 21.0913C64.1216 21.3474 64.2436 21.6523 64.2436 22.006C64.2436 22.3475 64.1216 22.6402 63.8777 22.8841C63.6337 23.1403 63.341 23.2683 62.9995 23.2683ZM68.5461 19.024L68.729 16.481C69.2047 16.4932 69.6438 16.4871 70.0462 16.4627C70.4487 16.4383 70.8085 16.4017 71.1256 16.353C71.4549 16.3042 71.7415 16.2493 71.9855 16.1883C72.2416 16.1273 72.455 16.0724 72.6258 16.0236C73.0405 15.8895 73.3942 15.7309 73.6869 15.548C73.9796 15.3528 74.2052 15.1333 74.3638 14.8894C74.5223 14.6455 74.6016 14.3832 74.6016 14.1027C74.6016 13.8832 74.5528 13.6636 74.4552 13.4441C74.3699 13.2124 74.2418 13.0233 74.0711 12.877C73.9003 12.7306 73.6991 12.6574 73.4673 12.6574C73.2478 12.6574 73.0466 12.7245 72.8636 12.8587C72.6807 12.9928 72.5343 13.1758 72.4245 13.4075C72.3148 13.6271 72.2599 13.8832 72.2599 14.1759C72.2599 14.432 72.3209 14.6759 72.4428 14.9077C72.5648 15.1272 72.7356 15.3406 72.9551 15.548C73.1746 15.7553 73.4368 15.9505 73.7418 16.1334L71.3086 17.0664C71.0402 16.8103 70.7841 16.5359 70.5402 16.2432C70.3085 15.9505 70.1133 15.6212 69.9548 15.2553C69.8084 14.8772 69.7352 14.4564 69.7352 13.9929C69.7352 13.4319 69.845 12.9197 70.0645 12.4562C70.2841 11.9927 70.5768 11.5963 70.9427 11.267C71.3086 10.9255 71.7172 10.6633 72.1684 10.4804C72.6197 10.2974 73.071 10.206 73.5222 10.206C74.254 10.206 74.8882 10.3767 75.4249 10.7182C75.9615 11.0597 76.3762 11.5049 76.6689 12.0537C76.9738 12.6026 77.1263 13.2002 77.1263 13.8466C77.1263 14.4442 77.0165 14.9809 76.797 15.4565C76.5774 15.92 76.2786 16.3347 75.9005 16.7005C75.5346 17.0542 75.1261 17.3653 74.6748 17.6336C74.2357 17.9019 73.7905 18.1275 73.3393 18.3105C73.1197 18.408 72.8453 18.4995 72.516 18.5849C72.1867 18.6703 71.8147 18.7495 71.4 18.8227C70.9854 18.8837 70.5402 18.9325 70.0645 18.9691C69.5889 19.0057 69.0827 19.024 68.5461 19.024ZM78.2056 19.024C77.4983 19.024 76.8031 18.9874 76.1201 18.9142C75.4371 18.841 74.8028 18.7313 74.2174 18.5849C73.6442 18.4385 73.1441 18.2617 72.7173 18.0544L73.9796 16.0785C74.3455 16.1761 74.7724 16.2554 75.2602 16.3164C75.7603 16.3651 76.2786 16.4017 76.8153 16.4261C77.3641 16.4505 77.8885 16.4627 78.3886 16.4627C78.8521 16.4627 79.1814 16.5847 79.3765 16.8286C79.5838 17.0603 79.6875 17.3531 79.6875 17.7068C79.6875 18.0848 79.5595 18.402 79.3033 18.6581C79.0472 18.902 78.6813 19.024 78.2056 19.024ZM73.5405 8.50455C73.1624 8.50455 72.8392 8.37649 72.5709 8.12037C72.3148 7.86424 72.1867 7.54714 72.1867 7.16905C72.1867 6.79096 72.3148 6.46775 72.5709 6.19943C72.8392 5.93111 73.1624 5.79695 73.5405 5.79695C73.9064 5.79695 74.2174 5.93111 74.4735 6.19943C74.7419 6.46775 74.876 6.79096 74.876 7.16905C74.876 7.54714 74.7419 7.86424 74.4735 8.12037C74.2174 8.37649 73.9064 8.50455 73.5405 8.50455ZM78.2294 19.024L78.4123 16.4627C78.8148 16.4627 79.1441 16.4322 79.4002 16.3712C79.6564 16.2981 79.8637 16.1456 80.0222 15.9139C80.193 15.67 80.3394 15.3102 80.4613 14.8345C80.5955 14.3466 80.7418 13.688 80.9004 12.8587L83.2787 13.2977C83.2299 13.5661 83.1628 13.9015 83.0774 14.304C83.0043 14.7064 82.9677 15.054 82.9677 15.3467C82.9677 15.5785 83.0104 15.7797 83.0957 15.9505C83.1933 16.109 83.3519 16.2371 83.5714 16.3347C83.8031 16.42 84.1202 16.4627 84.5227 16.4627C84.8398 16.4627 85.1082 16.4322 85.3277 16.3712C85.5594 16.2981 85.7546 16.1456 85.9131 15.9139C86.0839 15.67 86.2302 15.298 86.3522 14.7979C86.4863 14.2857 86.6144 13.5966 86.7364 12.7306L89.1513 13.1148C89.1025 13.3953 89.0537 13.6941 89.0049 14.0112C88.9561 14.3283 88.9134 14.6211 88.8768 14.8894C88.8403 15.1577 88.822 15.3772 88.822 15.548C88.822 15.7065 88.8647 15.859 88.95 16.0054C89.0476 16.1395 89.2183 16.2493 89.4623 16.3347C89.7184 16.42 90.0721 16.4627 90.5234 16.4627C91.0722 16.4627 91.4747 16.3469 91.7308 16.1151C91.9991 15.8712 92.1333 15.5053 92.1333 15.0174C92.1333 14.7369 92.1272 14.4381 92.115 14.121C92.1028 13.7917 92.0784 13.4258 92.0418 13.0233C92.0174 12.6087 91.9686 12.1391 91.8955 11.6146L94.2555 11.4317C94.3408 12.4806 94.4384 13.3343 94.5482 13.9929C94.658 14.6516 94.8043 15.1638 94.9873 15.5297C95.1824 15.8834 95.4385 16.1273 95.7556 16.2615C96.0849 16.3956 96.5118 16.4627 97.0363 16.4627C97.4997 16.4627 97.829 16.5847 98.0242 16.8286C98.2315 17.0603 98.3352 17.3531 98.3352 17.7068C98.3352 18.0848 98.2071 18.402 97.951 18.6581C97.7071 18.902 97.3412 19.024 96.8533 19.024C96.524 19.024 96.1825 18.9935 95.8288 18.9325C95.4751 18.8837 95.1336 18.78 94.8043 18.6215C94.475 18.4507 94.1823 18.2068 93.9262 17.8897C93.67 17.5726 93.4688 17.1518 93.3224 16.6274L93.6517 16.7371C93.481 17.347 93.2493 17.8165 92.9566 18.1458C92.6638 18.4751 92.304 18.7069 91.8772 18.841C91.4503 18.963 90.938 19.024 90.3404 19.024C89.7916 19.024 89.3037 18.9508 88.8768 18.8044C88.45 18.6581 88.1085 18.4202 87.8523 18.0909C87.6084 17.7494 87.4804 17.2921 87.4682 16.7188H88.0902C87.8463 17.4018 87.5657 17.908 87.2486 18.2373C86.9315 18.5666 86.5473 18.78 86.0961 18.8776C85.6448 18.9752 85.0777 19.024 84.3947 19.024C83.98 19.024 83.5714 18.9813 83.1689 18.8959C82.7664 18.7983 82.4066 18.5849 82.0895 18.2556C81.7724 17.9141 81.5407 17.3775 81.3943 16.6457L82.3823 16.6091C82.1261 17.3287 81.7907 17.8592 81.376 18.2007C80.9736 18.5422 80.5101 18.7678 79.9857 18.8776C79.4612 18.9752 78.8758 19.024 78.2294 19.024ZM87.6145 7.69959C87.3096 7.69959 87.0413 7.58372 86.8096 7.35199C86.59 7.12026 86.4803 6.84584 86.4803 6.52873C86.4803 6.21163 86.59 5.94331 86.8096 5.72377C87.0413 5.50423 87.3096 5.39447 87.6145 5.39447C87.9316 5.39447 88.1999 5.50423 88.4195 5.72377C88.639 5.94331 88.7488 6.21163 88.7488 6.52873C88.7488 6.84584 88.639 7.12026 88.4195 7.35199C88.1999 7.58372 87.9316 7.69959 87.6145 7.69959ZM86.1509 10.1145C85.846 10.1145 85.5777 9.99862 85.346 9.76688C85.1264 9.53515 85.0167 9.26073 85.0167 8.94363C85.0167 8.62652 85.1264 8.3582 85.346 8.13866C85.5777 7.91913 85.846 7.80936 86.1509 7.80936C86.4681 7.80936 86.7364 7.91913 86.9559 8.13866C87.1754 8.3582 87.2852 8.62652 87.2852 8.94363C87.2852 9.26073 87.1754 9.53515 86.9559 9.76688C86.7364 9.99862 86.4681 10.1145 86.1509 10.1145ZM88.9866 10.1145C88.6817 10.1145 88.4134 9.99862 88.1817 9.76688C87.9621 9.53515 87.8523 9.26073 87.8523 8.94363C87.8523 8.62652 87.9621 8.3582 88.1817 8.13866C88.4134 7.91913 88.6817 7.80936 88.9866 7.80936C89.3037 7.80936 89.572 7.91913 89.7916 8.13866C90.0111 8.3582 90.1209 8.62652 90.1209 8.94363C90.1209 9.26073 90.0111 9.53515 89.7916 9.76688C89.572 9.99862 89.3037 10.1145 88.9866 10.1145ZM96.8635 19.024L97.0464 16.4627C97.7782 16.4627 98.3392 16.4261 98.7295 16.353C99.1198 16.2798 99.3881 16.1456 99.5345 15.9505C99.693 15.7431 99.7723 15.4504 99.7723 15.0723C99.7723 14.7308 99.7235 14.3222 99.6259 13.8466C99.5406 13.3709 99.4247 12.877 99.2783 12.3647C99.1442 11.8525 98.9978 11.3829 98.8393 10.956L101.364 10.2608C101.522 10.6755 101.675 11.1573 101.821 11.7061C101.968 12.255 102.09 12.8221 102.187 13.4075C102.285 13.9807 102.334 14.5357 102.334 15.0723C102.334 15.9017 102.199 16.5786 101.931 17.103C101.663 17.6153 101.285 18.0117 100.797 18.2922C100.321 18.5727 99.7479 18.7678 99.0771 18.8776C98.4063 18.9752 97.6684 19.024 96.8635 19.024ZM101.382 23.2683C101.029 23.2683 100.724 23.1403 100.467 22.8841C100.224 22.6402 100.102 22.3475 100.102 22.006C100.102 21.6523 100.224 21.3474 100.467 21.0913C100.724 20.8351 101.029 20.7071 101.382 20.7071C101.724 20.7071 102.016 20.8351 102.26 21.0913C102.504 21.3474 102.626 21.6523 102.626 22.006C102.626 22.3475 102.504 22.6402 102.26 22.8841C102.016 23.1403 101.724 23.2683 101.382 23.2683ZM98.2173 23.2683C97.8636 23.2683 97.5587 23.1403 97.3025 22.8841C97.0586 22.6402 96.9366 22.3475 96.9366 22.006C96.9366 21.6523 97.0586 21.3474 97.3025 21.0913C97.5587 20.8351 97.8636 20.7071 98.2173 20.7071C98.5588 20.7071 98.8515 20.8351 99.0954 21.0913C99.3393 21.3474 99.4613 21.6523 99.4613 22.006C99.4613 22.3475 99.3393 22.6402 99.0954 22.8841C98.8515 23.1403 98.5588 23.2683 98.2173 23.2683Z" fill="url(#paint2_linear_753_3660)"/>
<defs>
<linearGradient id="paint0_linear_753_3660" x1="63.2798" y1="2.90768" x2="63.7258" y2="48.5012" gradientUnits="userSpaceOnUse">
<stop stop-color="#A6CB21"/>
<stop offset="1" stop-color="#4CAF50"/>
</linearGradient>
<linearGradient id="paint1_linear_753_3660" x1="19.6029" y1="-22.3209" x2="17.7827" y2="41.9492" gradientUnits="userSpaceOnUse">
<stop stop-color="#A6CB21"/>
<stop offset="1" stop-color="#4CAF50"/>
</linearGradient>
<linearGradient id="paint2_linear_753_3660" x1="75.4429" y1="-11.7175" x2="75.826" y2="23.9325" gradientUnits="userSpaceOnUse">
<stop stop-color="#A6CB21"/>
<stop offset="1" stop-color="#4CAF50"/>
</linearGradient>
</defs>
</svg>
